[Header]
FileType HTR
DataType HTRS
FileVersion 1
NumSegments 64
NumFrames 4
DataFrameRate 24
EulerRotationOrder ZYX
CalibrationUnits mm
RotationUnits Degrees
GlobalAxisofGravity Y
BoneLengthAxis Y
ScaleFactor 1.0
[SegmentNames&Hierarchy]
Hips	GLOBAL
Spine	Hips
Spine1	Spine
Spine2	Spine1
Neck	Spine2
Head	Neck
LeftEye	Head
RightEye	Head
LeftShoulder	Spine2
LeftArm	LeftShoulder
LeftForeArm	LeftArm
LeftHand	LeftForeArm
LeftHandThumb1	LeftHand
LeftHandThumb2	LeftHandThumb1
LeftHandThumb3	LeftHandThumb2
LeftHandThumb4	LeftHandThumb3
LeftHandIndex1	LeftHand
LeftHandIndex2	LeftHandIndex1
LeftHandIndex3	LeftHandIndex2
LeftHandIndex4	LeftHandIndex3
LeftHandMiddle1	LeftHand
LeftHandMiddle2	LeftHandMiddle1
LeftHandMiddle3	LeftHandMiddle2
LeftHandMiddle4	LeftHandMiddle3
LeftHandRing1	LeftHand
LeftHandRing2	LeftHandRing1
LeftHandRing3	LeftHandRing2
LeftHandRing4	LeftHandRing3
LeftHandPinky1	LeftHand
LeftHandPinky2	LeftHandPinky1
LeftHandPinky3	LeftHandPinky2
LeftHandPinky4	LeftHandPinky3
RightShoulder	Spine2
RightArm	RightShoulder
RightForeArm	RightArm
RightHand	RightForeArm
RightHandPinky1	RightHand
RightHandPinky2	RightHandPinky1
RightHandPinky3	RightHandPinky2
RightHandPinky4	RightHandPinky3
RightHandRing1	RightHand
RightHandRing2	RightHandRing1
RightHandRing3	RightHandRing2
RightHandRing4	RightHandRing3
RightHandMiddle1	RightHand
RightHandMiddle2	RightHandMiddle1
RightHandMiddle3	RightHandMiddle2
RightHandMiddle4	RightHandMiddle3
RightHandIndex1	RightHand
RightHandIndex2	RightHandIndex1
RightHandIndex3	RightHandIndex2
RightHandIndex4	RightHandIndex3
RightHandThumb1	RightHand
RightHandThumb2	RightHandThumb1
RightHandThumb3	RightHandThumb2
RightHandThumb4	RightHandThumb3
LeftUpLeg	Hips
LeftLeg	LeftUpLeg
LeftFoot	LeftLeg
LeftToeBase	LeftFoot
RightUpLeg	Hips
RightLeg	RightUpLeg
RightFoot	RightLeg
RightToeBase	RightFoot
[BasePosition]
Hips	0	0	0	0	0	0	1
Spine	0	0	0	0	0	0	1
Spine1	0	0	0	0	0	0	1
Spine2	0	0	0	0	0	0	1
Neck	0	0	0	0	0	0	1
Head	0	0	0	0	0	0	1
LeftEye	0	0	0	0	0	0	1
RightEye	0	0	0	0	0	0	1
LeftShoulder	0	0	0	0	0	0	1
LeftArm	0	0	0	0	0	0	1
LeftForeArm	0	0	0	0	0	0	1
LeftHand	0	0	0	0	0	0	1
LeftHandThumb1	0	0	0	0	0	0	1
LeftHandThumb2	0	0	0	0	0	0	1
LeftHandThumb3	0	0	0	0	0	0	1
LeftHandThumb4	0	0	0	0	0	0	1
LeftHandIndex1	0	0	0	0	0	0	1
LeftHandIndex2	0	0	0	0	0	0	1
LeftHandIndex3	0	0	0	0	0	0	1
LeftHandIndex4	0	0	0	0	0	0	1
LeftHandMiddle1	0	0	0	0	0	0	1
LeftHandMiddle2	0	0	0	0	0	0	1
LeftHandMiddle3	0	0	0	0	0	0	1
LeftHandMiddle4	0	0	0	0	0	0	1
LeftHandRing1	0	0	0	0	0	0	1
LeftHandRing2	0	0	0	0	0	0	1
LeftHandRing3	0	0	0	0	0	0	1
LeftHandRing4	0	0	0	0	0	0	1
LeftHandPinky1	0	0	0	0	0	0	1
LeftHandPinky2	0	0	0	0	0	0	1
LeftHandPinky3	0	0	0	0	0	0	1
LeftHandPinky4	0	0	0	0	0	0	1
RightShoulder	0	0	0	0	0	0	1
RightArm	0	0	0	0	0	0	1
RightForeArm	0	0	0	0	0	0	1
RightHand	0	0	0	0	0	0	1
RightHandPinky1	0	0	0	0	0	0	1
RightHandPinky2	0	0	0	0	0	0	1
RightHandPinky3	0	0	0	0	0	0	1
RightHandPinky4	0	0	0	0	0	0	1
RightHandRing1	0	0	0	0	0	0	1
RightHandRing2	0	0	0	0	0	0	1
RightHandRing3	0	0	0	0	0	0	1
RightHandRing4	0	0	0	0	0	0	1
RightHandMiddle1	0	0	0	0	0	0	1
RightHandMiddle2	0	0	0	0	0	0	1
RightHandMiddle3	0	0	0	0	0	0	1
RightHandMiddle4	0	0	0	0	0	0	1
RightHandIndex1	0	0	0	0	0	0	1
RightHandIndex2	0	0	0	0	0	0	1
RightHandIndex3	0	0	0	0	0	0	1
RightHandIndex4	0	0	0	0	0	0	1
RightHandThumb1	0	0	0	0	0	0	1
RightHandThumb2	0	0	0	0	0	0	1
RightHandThumb3	0	0	0	0	0	0	1
RightHandThumb4	0	0	0	0	0	0	1
LeftUpLeg	0	0	0	0	0	0	1
LeftLeg	0	0	0	0	0	0	1
LeftFoot	0	0	0	0	0	0	1
LeftToeBase	0	0	0	0	0	0	1
RightUpLeg	0	0	0	0	0	0	1
RightLeg	0	0	0	0	0	0	1
RightFoot	0	0	0	0	0	0	1
RightToeBase	0	0	0	0	0	0	1
[Hips]
48	-29.19341278	953.4100342	0.7743611932	-14.60051346	16.26991272	-13.18235588	1.0
49	-24.95630264	954.5267334	-3.049291134	-12.81681633	14.28153896	-11.40515137	1.0
50	-20.66335297	952.3677979	-7.15790987	-11.18371868	12.30709267	-9.535364151	1.0
51	-15.38840675	938.5114136	-12.80817509	-9.892831802	10.28829002	-7.112093449	1.0
[Spine]
48	9.234152094e-05	101.8158798	1.31520927	5.33390379	-1.565681934	-13.24267673	1.0
49	9.234152094e-05	101.8158798	1.31520927	3.88147974	-2.170696259	-11.11058998	1.0
50	9.234152094e-05	101.8158798	1.31520927	2.701157808	-2.662587881	-9.007780075	1.0
51	9.234152094e-05	101.8158798	1.31520927	2.340297461	-2.715531588	-6.887053967	1.0
[Spine1]
48	2.519402869e-06	100.8345108	-10.00804329	5.089541435	-0.1952016205	-3.243816376	1.0
49	2.519402869e-06	100.8345108	-10.00804329	4.041049957	-0.3677190542	-2.284715652	1.0
50	2.519402869e-06	100.8345108	-10.00804329	3.076049805	-0.5174025297	-1.408252358	1.0
51	2.519402869e-06	100.8345108	-10.00804329	2.365665674	-0.5806971788	-0.7279763818	1.0
[Spine2]
48	3.4574864e-06	91.00010681	-13.73417091	1.037595749	-0.2461775988	-1.643703699	1.0
49	3.4574864e-06	91.00010681	-13.73417091	0.8883934021	-0.3819990158	-1.02858448	1.0
50	3.4574864e-06	91.00010681	-13.73417091	0.7773529291	-0.5016086698	-0.4796257615	1.0
51	3.4574864e-06	91.00010681	-13.73417091	0.8047446609	-0.5601153374	-0.08894700557	1.0
[Neck]
48	6.334285445e-06	166.7166901	-25.16167831	10.96398163	0.1044968739	-0.07452964038	1.0
49	6.334285445e-06	166.7166901	-25.16167831	10.70027161	0.1181904376	-0.2593406439	1.0
50	6.334285445e-06	166.7166901	-25.16167831	10.46092796	0.1422382444	-0.4528804421	1.0
51	6.334285445e-06	166.7166901	-25.16167831	10.23000336	0.1928964853	-0.7065170407	1.0
[Head]
48	-4.242318937e-06	96.17874908	16.85007477	6.242033482	-8.818767548	15.0683403	1.0
49	-4.242318937e-06	96.17874908	16.85007477	7.745138168	-6.635451317	11.51263237	1.0
50	-4.242318937e-06	96.17874908	16.85007477	8.988100052	-4.500389576	8.095406532	1.0
51	-4.242318937e-06	96.17874908	16.85007477	9.41796875	-2.293320656	4.703149796	1.0
[LeftEye]
48	30.67560577	64.09507751	92.83554077	0	0	0	1.0
49	30.67560577	64.09507751	92.83554077	0	0	0	1.0
50	30.67560577	64.09507751	92.83554077	0	0	0	1.0
51	30.67560577	64.09507751	92.83554077	0	0	0	1.0
[RightEye]
48	-30.67550468	64.09500122	92.83547211	0	0	0	1.0
49	-30.67550468	64.09500122	92.83547211	0	0	0	1.0
50	-30.67550468	64.09500122	92.83547211	0	0	0	1.0
51	-30.67550468	64.09500122	92.83547211	0	0	0	1.0
[LeftShoulder]
48	45.70446396	109.4598465	-26.27988052	14.96605587	-6.958012581	14.60936356	1.0
49	45.70446396	109.4598465	-26.27988052	18.36054993	-5.780302048	16.99620056	1.0
50	45.70446396	109.4598465	-26.27988052	21.42571068	-4.837541103	18.3306427	1.0
51	45.70446396	109.4598465	-26.27988052	23.54090691	-4.851418972	16.13869476	1.0
[LeftArm]
48	105.9236984	-5.245829105	-22.32120132	-108.0669708	-14.49368382	33.54446411	1.0
49	105.9236984	-5.245829105	-22.32120132	-102.5289154	-9.514848709	36.46772385	1.0
50	105.9236984	-5.245829105	-22.32120132	-97.77268982	-5.490458965	39.36551666	1.0
51	105.9236984	-5.245829105	-22.32120132	-94.51242828	-3.513762951	41.62855148	1.0
[LeftForeArm]
48	278.4151917	-0.0008942864952	0.0003745891154	8.283666611	-57.51893997	-0.2910521626	1.0
49	278.4151917	-0.0008942864952	0.0003745891154	5.139913082	-59.54691315	2.093766451	1.0
50	278.4151917	-0.0008942864952	0.0003745891154	2.667662382	-61.76408386	4.015272141	1.0
51	278.4151917	-0.0008942864952	0.0003745891154	2.515451193	-65.11038208	3.977279425	1.0
[LeftHand]
48	283.2883911	-0.0001744071778	0.0003780452244	-70.50143433	-21.27274323	5.700233936	1.0
49	283.2883911	-0.0001744071778	0.0003780452244	-69.81860352	-18.27219582	8.184503555	1.0
50	283.2883911	-0.0001744071778	0.0003780452244	-68.93626404	-15.49027824	10.60654163	1.0
51	283.2883911	-0.0001744071778	0.0003780452244	-67.3553009	-13.19788551	12.84474754	1.0
[LeftHandThumb1]
48	24.66140366	-15.7504921	26.82413483	4.58968544	-1.9215101	11.7528019	1.0
49	24.66140366	-15.7504921	26.82413483	4.589715004	-1.921535492	11.75281048	1.0
50	24.66140366	-15.7504921	26.82413483	4.589711189	-1.921547174	11.75279522	1.0
51	24.66140366	-15.7504921	26.82413483	4.589899063	-1.921569824	11.75293732	1.0
[LeftHandThumb2]
48	32.29803848	-18.6469059	18.64681244	20.15610504	21.17603111	21.03708649	1.0
49	32.29803848	-18.6469059	18.64681244	20.44643784	19.24344254	23.86058044	1.0
50	32.29803848	-18.6469059	18.64681244	20.68173218	17.5323925	26.38891411	1.0
51	32.29803848	-18.6469059	18.64681244	20.77251434	16.25721741	28.38400269	1.0
[LeftHandThumb3]
48	26.52565002	-15.31492996	15.31471634	7.894834518	14.18428326	22.37506104	1.0
49	26.52565002	-15.31492996	15.31471634	7.894846439	14.18426895	22.37506866	1.0
50	26.52565002	-15.31492996	15.31471634	7.894837379	14.18426895	22.37505913	1.0
51	26.52565002	-15.31492996	15.31471634	7.894976616	14.18420124	22.37519836	1.0
[LeftHandThumb4]
48	19.54566956	-11.2850008	11.28492165	0	0	0	1.0
49	19.54566956	-11.2850008	11.28492165	0	0	0	1.0
50	19.54566956	-11.2850008	11.28492165	0	0	0	1.0
51	19.54566956	-11.2850008	11.28492165	0	0	0	1.0
[LeftHandIndex1]
48	91.09301758	-5.170834064	22.6007309	-0.2535558343	5.140420914	-3.685081959	1.0
49	91.09301758	-5.170834064	22.6007309	0.2328129262	4.027728081	-0.3430434465	1.0
50	91.09301758	-5.170834064	22.6007309	0.66229707	3.028958082	2.647557974	1.0
51	91.09301758	-5.170834064	22.6007309	0.9780398011	2.231599808	5.000310898	1.0
[LeftHandIndex2]
48	36.76409531	-6.939138257e-05	0.0002924251603	1.787419319	0.8875080943	-8.157146454	1.0
49	36.76409531	-6.939138257e-05	0.0002924251603	1.825330019	0.5238398314	-5.443916798	1.0
50	36.76409531	-6.939138257e-05	0.0002924251603	1.855558634	0.2011452913	-3.038827419	1.0
51	36.76409531	-6.939138257e-05	0.0002924251603	1.865209937	-0.03990274668	-1.251477361	1.0
[LeftHandIndex3]
48	28.83062553	0.000385119667	-0.0004276481632	0.7701935768	0.3299640119	-3.594230652	1.0
49	28.83062553	0.000385119667	-0.0004276481632	0.7893946171	-0.2274900675	1.196481466	1.0
50	28.83062553	0.000385119667	-0.0004276481632	0.7947334647	-0.7262480259	5.486133099	1.0
51	28.83062553	0.000385119667	-0.0004276481632	0.753375411	-1.118225694	8.870553017	1.0
[LeftHandIndex4]
48	23.92720032	0.0003702590766	0.0003355443478	0	0	0	1.0
49	23.92720032	0.0003702590766	0.0003355443478	0	0	0	1.0
50	23.92720032	0.0003702590766	0.0003355443478	0	0	0	1.0
51	23.92720032	0.0003702590766	0.0003355443478	0	0	0	1.0
[LeftHandMiddle1]
48	95.33401489	-0.000339240476	0.0001393702551	0.8932317495	2.847204447	-4.489768982	1.0
49	95.33401489	-0.000339240476	0.0001393702551	1.058214188	2.443758488	-1.082143068	1.0
50	95.33401489	-0.000339240476	0.0001393702551	1.199870467	2.080046654	1.968360662	1.0
51	95.33401489	-0.000339240476	0.0001393702551	1.288358331	1.783558726	4.372853756	1.0
[LeftHandMiddle2]
48	36.98236847	1.961359158e-05	0.0001791696704	-1.166446686	0.6335464716	-5.752328873	1.0
49	36.98236847	1.961359158e-05	0.0001791696704	-1.144999027	0.4764893949	-3.827527523	1.0
50	36.98236847	1.961359158e-05	0.0001791696704	-1.127738595	0.3371219039	-2.122975588	1.0
51	36.98236847	1.961359158e-05	0.0001791696704	-1.121647716	0.2328926027	-0.8633301258	1.0
[LeftHandMiddle3]
48	29.50921631	-0.0003937608562	0.0001644795993	0.1123904288	0.3835714459	-3.525504827	1.0
49	29.50921631	-0.0003937608562	0.0001644795993	0.1393007785	-0.1186240464	1.27130127	1.0
50	29.50921631	-0.0003937608562	0.0001644795993	0.1515511125	-0.5678915977	5.566369534	1.0
51	29.50921631	-0.0003937608562	0.0001644795993	0.1156756207	-0.9207838178	8.954990387	1.0
[LeftHandMiddle4]
48	28.3390255	-0.0003893481917	-9.504223272e-05	0	0	0	1.0
49	28.3390255	-0.0003893481917	-9.504223272e-05	0	0	0	1.0
50	28.3390255	-0.0003893481917	-9.504223272e-05	0	0	0	1.0
51	28.3390255	-0.0003893481917	-9.504223272e-05	0	0	0	1.0
[LeftHandRing1]
48	91.04527283	-0.4393950403	-18.65084648	-1.919200659	3.383901119	-4.139990807	1.0
49	91.04527283	-0.4393950403	-18.65084648	-1.714425445	3.147369862	-0.7149227858	1.0
50	91.04527283	-0.4393950403	-18.65084648	-1.537116528	2.93310523	2.351361513	1.0
51	91.04527283	-0.4393950403	-18.65084648	-1.420408249	2.754456043	4.769010067	1.0
[LeftHandRing2]
48	31.54026794	-6.55346812e-05	0.000104257444	-5.074000359	0.8422907591	-12.7756052	1.0
49	31.54026794	-6.55346812e-05	0.000104257444	-4.996434689	0.7880387306	-8.506299973	1.0
50	31.54026794	-6.55346812e-05	0.000104257444	-4.93645525	0.7381708622	-4.728622437	1.0
51	31.54026794	-6.55346812e-05	0.000104257444	-4.926018238	0.6937711835	-1.952224731	1.0
[LeftHandRing3]
48	29.37672424	-0.0004545861739	-6.864757597e-05	-2.972149849	0.6356568933	-5.186957359	1.0
49	29.37672424	-0.0004545861739	-6.864757597e-05	-2.909090042	0.3941617608	-0.3698577881	1.0
50	29.37672424	-0.0004545861739	-6.864757597e-05	-2.864343882	0.1779656112	3.943237305	1.0
51	29.37672424	-0.0004545861739	-6.864757597e-05	-2.874171734	0.007541231811	7.345424175	1.0
[LeftHandRing4]
48	26.47452545	-0.0004980441299	7.070515267e-07	0	0	0	1.0
49	26.47452545	-0.0004980441299	7.070515267e-07	0	0	0	1.0
50	26.47452545	-0.0004980441299	7.070515267e-07	0	0	0	1.0
51	26.47452545	-0.0004980441299	7.070515267e-07	0	0	0	1.0
[LeftHandPinky1]
48	80.77777863	-4.886682034	-38.06066895	-7.05929184	3.861913443	-4.749967575	1.0
49	80.77777863	-4.886682034	-38.06066895	-6.813095093	3.93306303	-1.315195203	1.0
50	80.77777863	-4.886682034	-38.06066895	-6.598446369	3.994195938	1.760136604	1.0
51	80.77777863	-4.886682034	-38.06066895	-6.45130825	4.032391071	4.186406136	1.0
[LeftHandPinky2]
48	36.00034332	-2.252215199e-05	-0.0002623879409	0.08375669271	0.242000401	-8.508562088	1.0
49	36.00034332	-2.252215199e-05	-0.0002623879409	0.09385856986	-0.04943558574	-5.690846443	1.0
50	36.00034332	-2.252215199e-05	-0.0002623879409	0.09912528843	-0.3081535697	-3.193075895	1.0
51	36.00034332	-2.252215199e-05	-0.0002623879409	0.08888909966	-0.5019699335	-1.336328268	1.0
[LeftHandPinky3]
48	21.14211655	0.0001953828178	-2.864415183e-05	-4.948654175	1.899417996	-9.219236374	1.0
49	21.14211655	0.0001953828178	-2.864415183e-05	-4.769021034	1.821274996	-4.393992901	1.0
50	21.14211655	0.0001953828178	-2.864415183e-05	-4.61974287	1.750442743	-0.07384812087	1.0
51	21.14211655	0.0001953828178	-2.864415183e-05	-4.546514511	1.691233277	3.332948923	1.0
[LeftHandPinky4]
48	19.7568264	0.0001240565616	-0.0004430140834	0	0	0	1.0
49	19.7568264	0.0001240565616	-0.0004430140834	0	0	0	1.0
50	19.7568264	0.0001240565616	-0.0004430140834	0	0	0	1.0
51	19.7568264	0.0001240565616	-0.0004430140834	0	0	0	1.0
[RightShoulder]
48	-45.69969559	109.4617615	-26.28017426	14.60439968	27.9815712	-26.90196228	1.0
49	-45.69969559	109.4617615	-26.28017426	19.08459091	29.52523994	-25.24693871	1.0
50	-45.69969559	109.4617615	-26.28017426	23.09404945	30.4722271	-23.39734459	1.0
51	-45.69969559	109.4617615	-26.28017426	25.95374298	29.52808571	-21.13281631	1.0
[RightArm]
48	-105.9284363	-5.247983932	-22.32098579	-68.48384094	-9.862911224	-24.16658783	1.0
49	-105.9284363	-5.247983932	-22.32098579	-72.67082977	-10.6174078	-27.72024345	1.0
50	-105.9284363	-5.247983932	-22.32098579	-76.46495056	-11.22082615	-31.07251549	1.0
51	-105.9284363	-5.247983932	-22.32098579	-79.15382385	-11.16907215	-34.05979919	1.0
[RightForeArm]
48	-278.4151917	-0.0003307921579	0.0001167631053	-37.53718185	47.03115463	-17.77256584	1.0
49	-278.4151917	-0.0003307921579	0.0001167631053	-31.87256241	49.38659668	-14.89189434	1.0
50	-278.4151917	-0.0003307921579	0.0001167631053	-28.0669136	52.98740387	-13.11531544	1.0
51	-278.4151917	-0.0003307921579	0.0001167631053	-25.00634575	57.18029785	-11.58797741	1.0
[RightHand]
48	-283.2883911	-1.581417109e-06	0.000558160129	-41.29876709	22.05419159	-4.464951515	1.0
49	-283.2883911	-1.581417109e-06	0.000558160129	-42.32184982	25.0095253	-8.6752882	1.0
50	-283.2883911	-1.581417109e-06	0.000558160129	-43.11291885	27.32814026	-12.1683197	1.0
51	-283.2883911	-1.581417109e-06	0.000558160129	-43.49599838	27.88915634	-13.50070095	1.0
[RightHandPinky1]
48	-80.76674652	-4.88459301	-38.06010437	-7.10574913	-3.543228865	5.82434845	1.0
49	-80.76674652	-4.88459301	-38.06010437	-6.95098114	-3.662863731	3.336333752	1.0
50	-80.76674652	-4.88459301	-38.06010437	-6.785996914	-3.77835083	0.7118406296	1.0
51	-80.76674652	-4.88459301	-38.06010437	-6.576181412	-3.906839848	-2.753463745	1.0
[RightHandPinky2]
48	-36.00034332	0.0003967665543	0.0005081442068	0.07999030501	-0.2077050805	10.02919865	1.0
49	-36.00034332	0.0003967665543	0.0005081442068	0.1029993445	-0.02454935014	7.941509247	1.0
50	-36.00034332	0.0003967665543	0.0005081442068	0.1136545688	0.162100777	5.761765003	1.0
51	-36.00034332	0.0003967665543	0.0005081442068	0.09683310986	0.3985621333	2.916760683	1.0
[RightHandPinky3]
48	-21.14211655	0.0001513792522	0.0001479376951	-4.950046062	-1.682179689	11.82465744	1.0
49	-21.14211655	0.0001513792522	0.0001479376951	-4.842071056	-1.711362839	8.251449585	1.0
50	-21.14211655	0.0001513792522	0.0001479376951	-4.732380867	-1.734718323	4.517456532	1.0
51	-21.14211655	0.0001513792522	0.0001479376951	-4.616425037	-1.750610232	-0.353456974	1.0
[RightHandPinky4]
48	-19.7568264	-0.000185219571	-9.839841368e-06	0	0	0	1.0
49	-19.7568264	-0.000185219571	-9.839841368e-06	0	0	0	1.0
50	-19.7568264	-0.000185219571	-9.839841368e-06	0	0	0	1.0
51	-19.7568264	-0.000185219571	-9.839841368e-06	0	0	0	1.0
[RightHandRing1]
48	-91.03588104	-0.4391434789	-18.65072441	-1.978412747	-3.243713856	5.228792191	1.0
49	-91.03588104	-0.4391434789	-18.65072441	-1.832266569	-3.132956505	2.725312233	1.0
50	-91.03588104	-0.4391434789	-18.65072441	-1.686329603	-3.008917093	0.09326639026	1.0
51	-91.03588104	-0.4391434789	-18.65072441	-1.519099832	-2.827146053	-3.366272926	1.0
[RightHandRing2]
48	-31.54026794	0.0002399729856	0.0004885121016	-5.03708601	-0.5691397786	15.09697723	1.0
49	-31.54026794	0.0002399729856	0.0004885121016	-4.993874073	-0.5922237635	11.93649483	1.0
50	-31.54026794	0.0002399729856	0.0004885121016	-4.956047058	-0.6156276464	8.638296127	1.0
51	-31.54026794	0.0002399729856	0.0004885121016	-4.935943604	-0.6425765157	4.331534863	1.0
[RightHandRing3]
48	-29.37672424	-0.0004160065437	-0.0003966063377	-2.950060844	-0.6069258451	7.74419117	1.0
49	-29.37672424	-0.0004160065437	-0.0003966063377	-2.906889439	-0.5015441775	4.188094616	1.0
50	-29.37672424	-0.0004160065437	-0.0003966063377	-2.872607231	-0.3915483654	0.4654280543	1.0
51	-29.37672424	-0.0004160065437	-0.0003966063377	-2.868597984	-0.2476748228	-4.402322292	1.0
[RightHandRing4]
48	-26.47452545	0.0002460821415	-2.294923434e-05	0	0	0	1.0
49	-26.47452545	0.0002460821415	-2.294923434e-05	0	0	0	1.0
50	-26.47452545	0.0002460821415	-2.294923434e-05	0	0	0	1.0
51	-26.47452545	0.0002460821415	-2.294923434e-05	0	0	0	1.0
[RightHandMiddle1]
48	-95.32502747	-0.0001631230261	0.0001679184206	0.8524115086	-2.793558359	5.535218239	1.0
49	-95.32502747	-0.0001631230261	0.0001679184206	0.9718456268	-2.556088448	3.05764699	1.0
50	-95.32502747	-0.0001631230261	0.0001679184206	1.088478565	-2.300923824	0.4456307292	1.0
51	-95.32502747	-0.0001631230261	0.0001679184206	1.215088367	-1.950257301	-2.999644756	1.0
[RightHandMiddle2]
48	-36.98236847	0.000150669599	-0.0002254552383	-1.145704985	-0.5732082129	6.806675911	1.0
49	-36.98236847	0.000150669599	-0.0002254552383	-1.143133402	-0.489223361	5.377846718	1.0
50	-36.98236847	0.000150669599	-0.0002254552383	-1.137190819	-0.4002366066	3.887696028	1.0
51	-36.98236847	0.000150669599	-0.0002254552383	-1.127338886	-0.2816514075	1.944802761	1.0
[RightHandMiddle3]
48	-29.50921631	-3.113244929e-06	-3.03402544e-06	0.1326393634	-0.52402246	6.051095963	1.0
49	-29.50921631	-3.113244929e-06	-3.03402544e-06	0.1620727032	-0.2286529094	2.518202543	1.0
50	-29.50921631	-3.113244929e-06	-3.03402544e-06	0.1768032163	0.08107258379	-1.185911536	1.0
51	-29.50921631	-3.113244929e-06	-3.03402544e-06	0.146037966	0.4869480431	-6.039287567	1.0
[RightHandMiddle4]
48	-28.3390255	8.05324089e-05	0.0005378770875	0	0	0	1.0
49	-28.3390255	8.05324089e-05	0.0005378770875	0	0	0	1.0
50	-28.3390255	8.05324089e-05	0.0005378770875	0	0	0	1.0
51	-28.3390255	8.05324089e-05	0.0005378770875	0	0	0	1.0
[RightHandIndex1]
48	-91.08280945	-5.167889595	22.60116386	-0.4770860076	-5.48780632	4.75251627	1.0
49	-91.08280945	-5.167889595	22.60116386	-0.1163658798	-4.719534397	2.308243275	1.0
50	-91.08280945	-5.167889595	22.60116386	0.2517850399	-3.911813021	-0.2655933797	1.0
51	-91.08280945	-5.167889595	22.60116386	0.7057427764	-2.843854904	-3.652469873	1.0
[RightHandIndex2]
48	-36.76409531	0.0001922715601	0.0003235567128	1.792756557	-0.8853316307	9.649463654	1.0
49	-36.76409531	0.0001922715601	0.0003235567128	1.819421172	-0.6578567624	7.629194736	1.0
50	-36.76409531	0.0001922715601	0.0003235567128	1.842140794	-0.4200307727	5.523877621	1.0
51	-36.76409531	0.0001922715601	0.0003235567128	1.855698586	-0.1082413793	2.782933712	1.0
[RightHandIndex3]
48	-28.83062553	-0.0004960121587	0.0004044897505	0.7935422659	-0.4987968206	6.144054413	1.0
49	-28.83062553	-0.0004960121587	0.0004044897505	0.817810297	-0.1609457582	2.596754074	1.0
50	-28.83062553	-0.0004960121587	0.0004044897505	0.826838553	0.1925053149	-1.114119768	1.0
51	-28.83062553	-0.0004960121587	0.0004044897505	0.7881217003	0.6543015838	-5.962152481	1.0
[RightHandIndex4]
48	-23.92720032	0.0002681470069	0.0002802013478	0	0	0	1.0
49	-23.92720032	0.0002681470069	0.0002802013478	0	0	0	1.0
50	-23.92720032	0.0002681470069	0.0002802013478	0	0	0	1.0
51	-23.92720032	0.0002681470069	0.0002802013478	0	0	0	1.0
[RightHandThumb1]
48	-24.64805984	-15.72714233	26.82626534	3.584140301	3.609605789	-11.11602211	1.0
49	-24.64805984	-15.72714233	26.82626534	3.54373455	3.58100462	-11.09008312	1.0
50	-24.64805984	-15.72714233	26.82626534	3.52004385	3.564311028	-11.07486057	1.0
51	-24.64805984	-15.72714233	26.82626534	3.520610332	3.565226316	-11.07511902	1.0
[RightHandThumb2]
48	-32.29771805	-18.6470871	18.64718437	21.28575897	-23.79964828	-20.82505035	1.0
49	-32.29771805	-18.6470871	18.64718437	21.57847023	-22.33260918	-22.91369057	1.0
50	-32.29771805	-18.6470871	18.64718437	21.85381317	-20.82439041	-25.10012817	1.0
51	-32.29771805	-18.6470871	18.64718437	22.09943008	-18.94074059	-27.95482063	1.0
[RightHandThumb3]
48	-26.52605057	-15.31449318	15.31445599	11.86508369	-19.28173065	-24.81980515	1.0
49	-26.52605057	-15.31449318	15.31445599	11.8492651	-19.30044365	-24.80943298	1.0
50	-26.52605057	-15.31449318	15.31445599	11.83994579	-19.31140518	-24.80329895	1.0
51	-26.52605057	-15.31449318	15.31445599	11.83985519	-19.31107903	-24.80306625	1.0
[RightHandThumb4]
48	-19.54580498	-11.28461742	11.28507042	0	0	0	1.0
49	-19.54580498	-11.28461742	11.28507042	0	0	0	1.0
50	-19.54580498	-11.28461742	11.28507042	0	0	0	1.0
51	-19.54580498	-11.28461742	11.28507042	0	0	0	1.0
[LeftUpLeg]
48	82.07781982	-67.51714325	-15.99555588	-18.27513885	-4.0297966	24.51049423	1.0
49	82.07781982	-67.51714325	-15.99555588	-18.24133301	-3.285338402	22.66922379	1.0
50	82.07781982	-67.51714325	-15.99555588	-18.60248184	-2.537121773	20.7915287	1.0
51	82.07781982	-67.51714325	-15.99555588	-20.37271881	-1.848607779	18.52210617	1.0
[LeftLeg]
48	-4.110157988e-06	-443.7047119	2.846426487	50.18717194	2.423118114	-3.467586756	1.0
49	-4.110157988e-06	-443.7047119	2.846426487	49.586586	3.869783163	-2.050910711	1.0
50	-4.110157988e-06	-443.7047119	2.846426487	49.85390854	5.252435207	-0.7100235224	1.0
51	-4.110157988e-06	-443.7047119	2.846426487	53.14537811	6.709059715	0.4699886739	1.0
[LeftFoot]
48	4.716393505e-06	-444.278717	-29.82190704	-21.55707359	-0.5899652243	-6.622893333	1.0
49	4.716393505e-06	-444.278717	-29.82190704	-21.32126236	-0.6045969129	-6.949440002	1.0
50	4.716393505e-06	-444.278717	-29.82190704	-21.47718048	-0.6785564423	-7.275679111	1.0
51	4.716393505e-06	-444.278717	-29.82190704	-23.01399231	-0.9480361938	-7.556842804	1.0
[LeftToeBase]
48	-2.960988058e-05	-87.28669739	107.1055984	-4.160834312	1.21267567e-05	-2.281620255e-06	1.0
49	-2.960988058e-05	-87.28669739	107.1055984	-4.023787498	1.458269617e-05	6.399195627e-07	1.0
50	-2.960988058e-05	-87.28669739	107.1055984	-3.881544352	1.562560101e-05	2.152525894e-06	1.0
51	-2.960988058e-05	-87.28669739	107.1055984	-3.698515654	1.233023977e-05	-5.676425872e-07	1.0
[RightUpLeg]
48	-82.07795715	-67.51662445	-15.99559402	-7.346634388	-32.15357971	1.581196904	1.0
49	-82.07795715	-67.51662445	-15.99559402	-10.03501034	-33.89953995	0.9629102945	1.0
50	-82.07795715	-67.51662445	-15.99559402	-13.15703869	-35.32205582	0.2623052895	1.0
51	-82.07795715	-67.51662445	-15.99559402	-18.15227509	-35.94702911	-0.8579334021	1.0
[RightLeg]
48	8.435572454e-07	-443.7053833	2.861563921	41.10108948	-2.481015921	-9.439711571	1.0
49	8.435572454e-07	-443.7053833	2.861563921	41.13490677	-1.550228834	-10.14921284	1.0
50	8.435572454e-07	-443.7053833	2.861563921	42.1097908	-0.4697693884	-10.78208351	1.0
51	8.435572454e-07	-443.7053833	2.861563921	46.54110718	1.307061076	-11.27572632	1.0
[RightFoot]
48	9.644581951e-06	-444.2773132	-29.83789063	-18.07138252	3.382372379	12.92219257	1.0
49	9.644581951e-06	-444.2773132	-29.83789063	-16.83046341	3.483354092	12.07288647	1.0
50	9.644581951e-06	-444.2773132	-29.83789063	-16.07723808	3.634704351	11.39810753	1.0
51	9.644581951e-06	-444.2773132	-29.83789063	-16.81384468	3.875560284	11.22612762	1.0
[RightToeBase]
48	-2.360438157e-05	-87.28668976	107.1056061	-1.795389771	-2.535307885e-06	2.782546289e-06	1.0
49	-2.360438157e-05	-87.28668976	107.1056061	-0.3085840344	-1.337718277e-05	3.578027645e-06	1.0
50	-2.360438157e-05	-87.28668976	107.1056061	0.9213048816	-2.155781112e-05	-2.592471446e-06	1.0
51	-2.360438157e-05	-87.28668976	107.1056061	1.291534901	-2.456180482e-05	-3.610636486e-05	1.0
[EndOfFile]
